<svg width="30" height="31" viewBox="0 0 30 31" fill="none" xmlns="http://www.w3.org/2000/svg">
<g id="icons">
<path id="Vector" d="M11.3745 16.3955L13.5756 19.1144L18.6251 12.8996M9.72335 6.78019C10.8153 6.93033 11.9034 6.47965 12.5694 5.60133C13.7899 3.99161 16.2099 3.99161 17.4304 5.60133C18.0964 6.47965 19.1845 6.93033 20.2765 6.78019C22.2778 6.50502 23.9889 8.21617 23.7138 10.2175C23.5636 11.3095 24.0143 12.3975 24.8926 13.0635C26.5023 14.2841 26.5023 16.704 24.8926 17.9246C24.0143 18.5906 23.5636 19.6786 23.7138 20.7706C23.9889 22.7719 22.2778 24.4831 20.2765 24.2079C19.1845 24.0578 18.0964 24.5084 17.4304 25.3868C16.2099 26.9965 13.7899 26.9965 12.5694 25.3868C11.9034 24.5084 10.8153 24.0578 9.72335 24.2079C7.72203 24.4831 6.01088 22.7719 6.28605 20.7706C6.43619 19.6786 5.98551 18.5906 5.10719 17.9246C3.49747 16.704 3.49747 14.2841 5.10719 13.0635C5.98551 12.3975 6.43619 11.3095 6.28605 10.2175C6.01088 8.21617 7.72203 6.50502 9.72335 6.78019Z" stroke="#001C38" stroke-width="1.5" stroke-linecap="round" stroke-linejoin="round"/>
</g>
</svg>
